<svg width="31" height="24" viewBox="0 0 31 24" fill="none" xmlns="http://www.w3.org/2000/svg">
<path d="M24.6705 3.27359C24.6628 3.25875 24.6501 3.24711 24.6346 3.24078C22.8415 2.42087 20.9493 1.83621 19.0053 1.50143C18.9876 1.49816 18.9694 1.50052 18.9531 1.50818C18.9369 1.51584 18.9235 1.5284 18.9148 1.54409C18.6572 2.01016 18.4233 2.4889 18.214 2.97847C16.1185 2.66144 13.987 2.66144 11.8914 2.97847C11.6808 2.48765 11.4432 2.0088 11.1796 1.54409C11.1705 1.52875 11.1571 1.51647 11.1409 1.50886C11.1248 1.50125 11.1067 1.49866 11.0891 1.50143C9.14489 1.83551 7.25255 2.42021 5.4597 3.24082C5.44435 3.24731 5.4314 3.25838 5.42264 3.27251C1.83729 8.60867 0.855127 13.8136 1.33694 18.9541C1.3383 18.9667 1.34218 18.9789 1.34836 18.99C1.35454 19.0011 1.3629 19.0108 1.37292 19.0186C3.46064 20.5591 5.79577 21.7351 8.27867 22.4962C8.29616 22.5014 8.31483 22.5012 8.33218 22.4955C8.34953 22.4898 8.36472 22.479 8.37571 22.4645C8.90898 21.7413 9.3815 20.9756 9.78846 20.175C9.79405 20.164 9.79725 20.152 9.79783 20.1397C9.79841 20.1274 9.79637 20.1151 9.79184 20.1036C9.78732 20.0922 9.7804 20.0818 9.77156 20.0732C9.76271 20.0646 9.75214 20.058 9.74054 20.0537C8.9954 19.7696 8.27403 19.4271 7.58318 19.0294C7.57064 19.022 7.5601 19.0117 7.5525 18.9993C7.5449 18.9869 7.54047 18.9729 7.53961 18.9584C7.53875 18.9439 7.54148 18.9295 7.54756 18.9163C7.55365 18.9031 7.56289 18.8916 7.57448 18.8828C7.71944 18.7746 7.86449 18.662 8.00291 18.5483C8.01521 18.5382 8.03009 18.5317 8.04588 18.5296C8.06167 18.5275 8.07774 18.5298 8.09228 18.5363C12.6183 20.5949 17.5183 20.5949 21.9908 18.5363C22.0054 18.5294 22.0216 18.5267 22.0376 18.5287C22.0536 18.5306 22.0688 18.537 22.0813 18.5472C22.2198 18.6609 22.3648 18.7746 22.5108 18.8828C22.5225 18.8915 22.5318 18.9029 22.538 18.9161C22.5441 18.9292 22.547 18.9436 22.5462 18.9581C22.5455 18.9726 22.5411 18.9867 22.5336 18.9991C22.5261 19.0115 22.5157 19.0219 22.5032 19.0294C21.8139 19.4304 21.0919 19.7727 20.3448 20.0526C20.3332 20.057 20.3227 20.0638 20.3139 20.0726C20.3051 20.0813 20.2982 20.0918 20.2938 20.1033C20.2894 20.1149 20.2874 20.1273 20.2881 20.1396C20.2888 20.152 20.2921 20.164 20.2978 20.175C20.7115 20.9711 21.1834 21.7359 21.7094 22.4632C21.7201 22.4782 21.7352 22.4893 21.7526 22.4952C21.7701 22.5011 21.7889 22.5014 21.8065 22.496C24.2938 21.7375 26.633 20.5615 28.7234 19.0186C28.7335 19.0112 28.742 19.0017 28.7482 18.9908C28.7544 18.9798 28.7582 18.9677 28.7594 18.9552C29.3362 13.0122 27.7936 7.84995 24.6705 3.27359ZM10.4644 15.8241C9.10172 15.8241 7.97893 14.5778 7.97893 13.0473C7.97893 11.5167 9.07994 10.2703 10.4644 10.2703C11.8596 10.2703 12.9716 11.5275 12.9498 13.0472C12.9498 14.5778 11.8487 15.8241 10.4644 15.8241ZM19.6539 15.8241C18.2912 15.8241 17.1685 14.5778 17.1685 13.0473C17.1685 11.5167 18.2695 10.2703 19.6539 10.2703C21.0492 10.2703 22.1611 11.5275 22.1393 13.0472C22.1393 14.5778 21.0492 15.8241 19.6539 15.8241Z" fill="white"/>
</svg>
