<svg width="21" height="24" viewBox="0 0 21 24" fill="none" xmlns="http://www.w3.org/2000/svg">
<g clip-path="url(#clip0_1050_3000)">
<path d="M10.5043 6.60928C7.52305 6.60928 5.11836 9.01396 5.11836 11.9952C5.11836 14.9765 7.52305 17.3812 10.5043 17.3812C13.4855 17.3812 15.8902 14.9765 15.8902 11.9952C15.8902 9.01396 13.4855 6.60928 10.5043 6.60928ZM10.5043 15.4968C8.57773 15.4968 7.00273 13.9265 7.00273 11.9952C7.00273 10.064 8.57305 8.49365 10.5043 8.49365C12.4355 8.49365 14.0059 10.064 14.0059 11.9952C14.0059 13.9265 12.4309 15.4968 10.5043 15.4968ZM17.3668 6.38896C17.3668 7.0874 16.8043 7.64522 16.1105 7.64522C15.4121 7.64522 14.8543 7.08271 14.8543 6.38896C14.8543 5.69521 15.4168 5.13271 16.1105 5.13271C16.8043 5.13271 17.3668 5.69521 17.3668 6.38896ZM20.934 7.66396C20.8543 5.98115 20.4699 4.49053 19.2371 3.2624C18.009 2.03428 16.5184 1.6499 14.8355 1.56553C13.1012 1.46709 7.90273 1.46709 6.16836 1.56553C4.49023 1.64521 2.99961 2.02959 1.7668 3.25771C0.533984 4.48584 0.154297 5.97646 0.0699219 7.65928C-0.0285156 9.39365 -0.0285156 14.5921 0.0699219 16.3265C0.149609 18.0093 0.533984 19.4999 1.7668 20.728C2.99961 21.9562 4.48555 22.3405 6.16836 22.4249C7.90273 22.5233 13.1012 22.5233 14.8355 22.4249C16.5184 22.3452 18.009 21.9608 19.2371 20.728C20.4652 19.4999 20.8496 18.0093 20.934 16.3265C21.0324 14.5921 21.0324 9.39834 20.934 7.66396ZM18.6934 18.1874C18.3277 19.1062 17.6199 19.814 16.6965 20.1843C15.3137 20.7327 12.0324 20.6062 10.5043 20.6062C8.97617 20.6062 5.69023 20.728 4.31211 20.1843C3.39336 19.8187 2.68555 19.1108 2.31523 18.1874C1.7668 16.8046 1.89336 13.5233 1.89336 11.9952C1.89336 10.4671 1.77148 7.18115 2.31523 5.80303C2.68086 4.88428 3.38867 4.17646 4.31211 3.80615C5.69492 3.25771 8.97617 3.38428 10.5043 3.38428C12.0324 3.38428 15.3184 3.2624 16.6965 3.80615C17.6152 4.17178 18.323 4.87959 18.6934 5.80303C19.2418 7.18584 19.1152 10.4671 19.1152 11.9952C19.1152 13.5233 19.2418 16.8093 18.6934 18.1874Z" fill="white"/>
</g>
<defs>
<clipPath id="clip0_1050_3000">
<rect width="21" height="24" fill="white"/>
</clipPath>
</defs>
</svg>
