<svg width="109" height="36" viewBox="0 0 109 36" fill="none" xmlns="http://www.w3.org/2000/svg">
<path d="M81.9362 35.2626C76.7621 35.2626 74.0793 32.2191 74.0793 26.893V1.49902H79.3492V27.2735C79.3492 29.6512 80.3552 30.5072 82.032 30.5072C83.7088 30.5072 84.7149 29.6512 84.7149 27.2735V1.49902H89.7931V26.893C89.7931 32.2191 87.1103 35.2626 81.9362 35.2626Z" fill="#9818FF"/>
<path d="M92.5883 34.7871V1.49902H100.349C105.619 1.49902 108.206 4.39984 108.206 9.72592V13.0072C108.206 18.3333 105.619 21.2341 100.349 21.2341H97.8582V34.7871H92.5883ZM97.8582 16.4786H100.349C102.026 16.4786 102.936 15.7178 102.936 13.3401V9.39304C102.936 7.01533 102.026 6.25446 100.349 6.25446H97.8582V16.4786Z" fill="#9818FF"/>
<path d="M55.1077 34.977V1.68896H69.4801V6.4444H60.3776V15.242H67.6117V19.9974H60.3776V30.2216H69.4801V34.977H55.1077Z" fill="white"/>
<path d="M18.2051 34.977V1.68896H23.475V34.977H18.2051Z" fill="white"/>
<path d="M0 34.977V1.68896H8.04856C13.3184 1.68896 15.9055 4.58978 15.9055 9.91587V26.7501C15.9055 32.0762 13.3184 34.977 8.04856 34.977H0ZM5.26989 30.2216H7.95274C9.62952 30.2216 10.6356 29.3656 10.6356 26.9879V9.67809C10.6356 7.30038 9.62952 6.4444 7.95274 6.4444H5.26989V30.2216Z" fill="white"/>
<path fill-rule="evenodd" clip-rule="evenodd" d="M32.8783 0.737793C28.8567 0.737793 25.5963 3.974 25.5963 7.96606V27.7487C25.5963 31.7407 28.8567 34.9769 32.8783 34.9769H45.5261C49.5477 34.9769 52.8081 31.7407 52.8081 27.7487V22.0421H47.4424V27.3682C47.4424 29.0491 46.0695 30.4117 44.3763 30.4117H34.0281C32.3349 30.4117 30.962 29.0491 30.962 27.3682V8.72693C30.962 7.04609 32.3349 5.68345 34.0281 5.68345H44.3763C46.0695 5.68345 47.4424 7.04609 47.4424 8.72693V12.5313H52.8081V7.96606C52.8081 3.974 49.5477 0.737793 45.5261 0.737793H32.8783Z" fill="url(#paint0_linear_1065_1526)"/>
<path d="M35.3696 12.5313C36.3221 12.5313 37.0943 11.7649 37.0943 10.8194C37.0943 9.87389 36.3221 9.10742 35.3696 9.10742C34.4171 9.10742 33.6449 9.87389 33.6449 10.8194C33.6449 11.7649 34.4171 12.5313 35.3696 12.5313Z" fill="url(#paint1_linear_1065_1526)"/>
<path d="M43.4181 12.5313C44.3706 12.5313 45.1428 11.7649 45.1428 10.8194C45.1428 9.87389 44.3706 9.10742 43.4181 9.10742C42.4656 9.10742 41.6934 9.87389 41.6934 10.8194C41.6934 11.7649 42.4656 12.5313 43.4181 12.5313Z" fill="url(#paint2_linear_1065_1526)"/>
<path d="M39.2022 18.9986C40.1547 18.9986 40.9269 18.2322 40.9269 17.2867C40.9269 16.3412 40.1547 15.5747 39.2022 15.5747C38.2497 15.5747 37.4775 16.3412 37.4775 17.2867C37.4775 18.2322 38.2497 18.9986 39.2022 18.9986Z" fill="url(#paint3_linear_1065_1526)"/>
<path d="M35.3696 26.6075C36.3221 26.6075 37.0943 25.841 37.0943 24.8956C37.0943 23.9501 36.3221 23.1836 35.3696 23.1836C34.4171 23.1836 33.6449 23.9501 33.6449 24.8956C33.6449 25.841 34.4171 26.6075 35.3696 26.6075Z" fill="url(#paint4_linear_1065_1526)"/>
<path d="M43.4181 26.6075C44.3706 26.6075 45.1428 25.841 45.1428 24.8956C45.1428 23.9501 44.3706 23.1836 43.4181 23.1836C42.4656 23.1836 41.6934 23.9501 41.6934 24.8956C41.6934 25.841 42.4656 26.6075 43.4181 26.6075Z" fill="url(#paint5_linear_1065_1526)"/>
<defs>
<linearGradient id="paint0_linear_1065_1526" x1="52.8081" y1="0.737826" x2="25.0357" y2="1.19876" gradientUnits="userSpaceOnUse">
<stop stop-color="#01FF94"/>
<stop offset="1" stop-color="#16DAB5"/>
</linearGradient>
<linearGradient id="paint1_linear_1065_1526" x1="37.0943" y1="9.10742" x2="33.5744" y2="9.18148" gradientUnits="userSpaceOnUse">
<stop stop-color="#01FF94"/>
<stop offset="1" stop-color="#16DAB5"/>
</linearGradient>
<linearGradient id="paint2_linear_1065_1526" x1="45.1428" y1="9.10742" x2="41.6229" y2="9.18148" gradientUnits="userSpaceOnUse">
<stop stop-color="#01FF94"/>
<stop offset="1" stop-color="#16DAB5"/>
</linearGradient>
<linearGradient id="paint3_linear_1065_1526" x1="40.9269" y1="15.5747" x2="37.407" y2="15.6488" gradientUnits="userSpaceOnUse">
<stop stop-color="#01FF94"/>
<stop offset="1" stop-color="#16DAB5"/>
</linearGradient>
<linearGradient id="paint4_linear_1065_1526" x1="37.0943" y1="23.1836" x2="33.5744" y2="23.2577" gradientUnits="userSpaceOnUse">
<stop stop-color="#01FF94"/>
<stop offset="1" stop-color="#16DAB5"/>
</linearGradient>
<linearGradient id="paint5_linear_1065_1526" x1="45.1428" y1="23.1836" x2="41.6229" y2="23.2577" gradientUnits="userSpaceOnUse">
<stop stop-color="#01FF94"/>
<stop offset="1" stop-color="#16DAB5"/>
</linearGradient>
</defs>
</svg>
